#!OML:ASF Y:\EmotionMaleHayes\Project 1\Capture day 1\Session 1\Male1.ASF
:FULLY-SPECIFIED
:DEGREES
230
root -30.283 17.0552 1.13304 25.7274 84.6546 25.4529
lowerback 3.70652 1.8864 -5.08967
upperback 0.945283 2.33287 -0.310135
thorax -1.2936 1.18573 2.41719
lowerneck -22.6264 2.57376 4.70543
upperneck 27.7813 3.05931 -2.49788
head 13.2307 1.61527 -1.19917
rclavicle 9.97029e-016 -6.95746e-015
rhumerus 0 0 0
rradius 0
rwrist 0
rhand 0 0
rfingers 0
rthumb 0 0
lclavicle 9.97029e-016 -6.95746e-015
lhumerus -30.1281 -8.88651 92.1729
lradius 22.2061
lwrist -17.5105
lhand -12.527 -26.8794
lfingers 7.12502
lthumb 13.5491 2.65972
rfemur 6.8642 -4.30226 13.8347
rtibia 3.92414
rfoot -15.3852 -2.21017
rtoes 11.7829
lfemur 11.3262 2.91943 -19.2099
ltibia -0.994173
lfoot -14.4222 18.6749
ltoes -8.81982
231
root -30.2845 17.0558 1.13344 25.2028 84.6874 24.9217
lowerback 3.71663 1.8634 -5.06834
upperback 0.947484 2.3027 -0.269513
thorax -1.29543 1.17052 2.44846
lowerneck -22.6677 2.57271 4.70718
upperneck 27.8242 3.07915 -2.56612
head 13.2591 1.61462 -1.22253
rclavicle -1.1045e-014 -1.2424e-015
rhumerus 0 0 0
rradius 0
rwrist 0
rhand 0 0
rfingers 0
rthumb 0 0
lclavicle -1.1045e-014 -1.2424e-015
lhumerus -30.0939 -8.81806 92.1608
lradius 22.1523
lwrist -17.5859
lhand -13.6588 -26.8262
lfingers 7.12502
lthumb 12.4581 2.78249
rfemur 6.89036 -4.22934 13.9308
rtibia 3.86636
rfoot -15.4301 -2.24619
rtoes 12.2641
lfemur 11.297 2.94084 -19.1228
ltibia -0.95183
lfoot -14.2937 18.6549
ltoes -9.50253
232
root -30.2851 17.0556 1.13331 25.3949 84.6876 25.1115
lowerback 3.70936 1.85744 -5.10495
upperback 0.945963 2.29389 -0.252754
thorax -1.29431 1.16619 2.48685
lowerneck -22.6857 2.5607 4.66834
upperneck 27.874 3.08554 -2.586
head 13.2833 1.61118 -1.22261
rclavicle -1.11475e-014 1.38155e-014
rhumerus 0 0 0
rradius 0
rwrist 0
rhand 0 0
rfingers 0
rthumb 0 0
lclavicle -1.11475e-014 1.38155e-014
lhumerus -30.1021 -8.70729 92.1666
lradius 22.132
lwrist -17.6601
lhand -14.2563 -26.7339
lfingers 7.12502
lthumb 11.882 2.90891
rfemur 6.91094 -4.19446 13.9232
rtibia 3.8178
rfoot -15.3893 -2.23516
rtoes 12.0128
lfemur 11.3105 2.95359 -19.1281
ltibia -1.01007
lfoot -14.4134 18.6469
ltoes -9.07566
233
root -30.2855 17.0562 1.13358 25.5952 84.6695 25.3188
lowerback 3.70414 1.8585 -5.13584
upperback 0.950222 2.29467 -0.251209
thorax -1.2883 1.16648 2.50591
lowerneck -22.6713 2.56861 4.63225
upperneck 27.8814 3.10694 -2.5683
head 13.2833 1.61953 -1.20576
rclavicle 3.57191e-015 1.2921e-015
rhumerus 0 0 0
rradius 0
rwrist 0
rhand 0 0
rfingers 0
rthumb 0 0
lclavicle 3.57191e-015 1.2921e-015
lhumerus -30.1654 -8.63847 92.1697
lradius 22.2242
lwrist -17.6593
lhand -14.2836 -26.6774
lfingers 7.12502
lthumb 11.8556 2.96698
rfemur 6.92308 -4.21252 13.8849
rtibia 3.79297
rfoot -15.3429 -2.24386
rtoes 12.1128
lfemur 11.3194 3.00502 -19.1357
ltibia -1.0218
lfoot -14.5615 18.6051
ltoes -8.28599
234
root -30.2875 17.0572 1.13473 25.6404 84.6602 25.3762
lowerback 3.74337 1.86266 -5.15539
upperback 0.961569 2.2976 -0.260759
thorax -1.29914 1.16817 2.50578
lowerneck -22.6554 2.5524 4.65746
upperneck 27.866 3.08847 -2.61293
head 13.274 1.60787 -1.23099
rclavicle -4.78947e-015 9.93923e-017
rhumerus 0 0 0
rradius 0
rwrist 0
rhand 0 0
rfingers 0
rthumb 0 0
lclavicle -4.78947e-015 9.93923e-017
lhumerus -30.1762 -8.63512 92.145
lradius 22.2558
lwrist -17.6398
lhand -14.1017 -26.6579
lfingers 7.12502
lthumb 12.031 2.97624
rfemur 6.92128 -4.27315 13.8574
rtibia 3.80672
rfoot -15.3275 -2.19704
rtoes 12.1776
lfemur 11.2831 3.01014 -19.1352
ltibia -0.917835
lfoot -14.6852 18.541
ltoes -7.77378
